<svg xmlns="http://www.w3.org/2000/svg" viewBox="0 0 512 512">
  <rect width="512" height="512" rx="96" fill="#121212"/>
  <!-- Doodle speech bubble -->
  <path d="M128 140 C125 105, 175 72, 256 70 C340 68, 395 100, 392 145 C395 105, 388 72, 256 70" fill="none"/>
  <path d="M120 200 C115 138, 168 88, 260 86 C355 84, 400 128, 396 195 C392 258, 345 298, 300 300 L270 370 L240 302 C170 305, 125 262, 120 200Z"
        fill="none" stroke="#ffd21f" stroke-width="22" stroke-linecap="round" stroke-linejoin="round"/>
  <!-- Star inside bubble -->
  <polygon points="260,140 275,178 316,178 283,203 296,242 260,218 224,242 237,203 204,178 245,178"
           fill="none" stroke="#abd600" stroke-width="14" stroke-linecap="round" stroke-linejoin="round"/>
  <!-- Sparkle marks -->
  <line x1="360" y1="110" x2="380" y2="90" stroke="#ffd21f" stroke-width="10" stroke-linecap="round"/>
  <line x1="385" y1="115" x2="395" y2="105" stroke="#ffd21f" stroke-width="8" stroke-linecap="round"/>
  <line x1="140" y1="290" x2="120" y2="310" stroke="#abd600" stroke-width="8" stroke-linecap="round"/>
</svg>
