<svg xmlns="http://www.w3.org/2000/svg" viewBox="0 0 48 48" fill="none">
  <!-- Two doodle people with a star between them (like the attached image) -->
  <!-- Person 1 -->
  <circle cx="14" cy="12" r="5" stroke="#ffd21f" stroke-width="3" stroke-linecap="round"/>
  <path d="M14 17 L14 30" stroke="#ffd21f" stroke-width="3" stroke-linecap="round"/>
  <path d="M14 20 L6 26" stroke="#ffd21f" stroke-width="3" stroke-linecap="round"/>
  <path d="M14 20 L20 14" stroke="#ffd21f" stroke-width="3" stroke-linecap="round"/>
  <path d="M14 30 L8 40" stroke="#ffd21f" stroke-width="3" stroke-linecap="round"/>
  <path d="M14 30 L20 40" stroke="#ffd21f" stroke-width="3" stroke-linecap="round"/>
  <!-- Person 2 -->
  <circle cx="36" cy="12" r="5" stroke="#ffd21f" stroke-width="3" stroke-linecap="round"/>
  <path d="M36 17 L36 30" stroke="#ffd21f" stroke-width="3" stroke-linecap="round"/>
  <path d="M36 20 L44 26" stroke="#ffd21f" stroke-width="3" stroke-linecap="round"/>
  <path d="M36 20 L30 14" stroke="#ffd21f" stroke-width="3" stroke-linecap="round"/>
  <path d="M36 30 L30 40" stroke="#ffd21f" stroke-width="3" stroke-linecap="round"/>
  <path d="M36 30 L42 40" stroke="#ffd21f" stroke-width="3" stroke-linecap="round"/>
  <!-- Star between them -->
  <polygon points="25,22 27,27 32,27 28,31 29,36 25,33 21,36 22,31 18,27 23,27"
           stroke="#ffd21f" stroke-width="2" stroke-linecap="round" stroke-linejoin="round" fill="#ffd21f"/>
</svg>
