<svg xmlns="http://www.w3.org/2000/svg" viewBox="0 0 512 512">
  <rect width="512" height="512" rx="96" fill="#0f0f1a"/>
  <!-- Outer doodle circle -->
  <circle cx="256" cy="256" r="200" fill="none" stroke="#ffd21f" stroke-width="14" stroke-linecap="round"
          stroke-dasharray="8 0" />
  <!-- Speech bubble -->
  <path d="M150 200 C148 152, 188 115, 256 113 C328 111, 370 148, 368 198 C366 248, 330 275, 295 278 L270 330 L248 280 C195 283, 152 248, 150 200Z"
        fill="none" stroke="#ffd21f" stroke-width="12" stroke-linecap="round" stroke-linejoin="round"/>
  <!-- Star inside -->
  <polygon points="256,155 268,185 300,185 274,205 284,236 256,218 228,236 238,205 212,185 244,185"
           fill="none" stroke="#abd600" stroke-width="10" stroke-linecap="round" stroke-linejoin="round"/>
  <!-- Doodle hands reaching up (like the attached image) -->
  <path d="M140 380 Q130 340, 150 310 Q155 302, 165 310 Q170 315, 168 325"
        stroke="#abd600" stroke-width="8" stroke-linecap="round" stroke-linejoin="round" fill="none"/>
  <path d="M155 310 L145 290" stroke="#abd600" stroke-width="6" stroke-linecap="round"/>
  <path d="M165 310 L175 288" stroke="#abd600" stroke-width="6" stroke-linecap="round"/>
  <path d="M372 380 Q382 340, 362 310 Q357 302, 347 310 Q342 315, 344 325"
        stroke="#abd600" stroke-width="8" stroke-linecap="round" stroke-linejoin="round" fill="none"/>
  <path d="M357 310 L367 290" stroke="#abd600" stroke-width="6" stroke-linecap="round"/>
  <path d="M347 310 L337 288" stroke="#abd600" stroke-width="6" stroke-linecap="round"/>
  <!-- Sparkles -->
  <circle cx="380" cy="130" r="4" fill="#ffd21f"/>
  <line x1="380" y1="118" x2="380" y2="142" stroke="#ffd21f" stroke-width="4" stroke-linecap="round"/>
  <line x1="368" y1="130" x2="392" y2="130" stroke="#ffd21f" stroke-width="4" stroke-linecap="round"/>
  <circle cx="140" cy="350" r="3" fill="#abd600"/>
  <line x1="140" y1="342" x2="140" y2="358" stroke="#abd600" stroke-width="3" stroke-linecap="round"/>
  <line x1="132" y1="350" x2="148" y2="350" stroke="#abd600" stroke-width="3" stroke-linecap="round"/>
</svg>
