<svg xmlns="http://www.w3.org/2000/svg" viewBox="0 0 48 48" fill="none">
  <!-- Doodle speech bubbles (conversation) -->
  <path d="M8 10 C6 10, 4 12, 4 14 L4 26 C4 28, 6 30, 8 30 L14 30 L18 36 L20 30 L30 30 C32 30, 34 28, 34 26 L34 14 C34 12, 32 10, 30 10Z"
        stroke="#ffd21f" stroke-width="3" stroke-linecap="round" stroke-linejoin="round"/>
  <path d="M38 18 L40 18 C42 18, 44 20, 44 22 L44 34 C44 36, 42 38, 40 38 L36 38 L34 42 L32 38 L22 38 C20 38, 18 36, 18 34"
        stroke="#ffd21f" stroke-width="3" stroke-linecap="round" stroke-linejoin="round"/>
  <!-- Dots in first bubble -->
  <circle cx="12" cy="20" r="2" fill="#ffd21f"/>
  <circle cx="19" cy="20" r="2" fill="#ffd21f"/>
  <circle cx="26" cy="20" r="2" fill="#ffd21f"/>
</svg>
