<svg xmlns="http://www.w3.org/2000/svg" viewBox="0 0 48 48" fill="none">
  <!-- Doodle lightbulb with sparkles -->
  <path d="M24 6 C16 6, 10 13, 10 20 C10 26, 14 30, 18 33 L18 38 L30 38 L30 33 C34 30, 38 26, 38 20 C38 13, 32 6, 24 6Z"
        stroke="#ffd21f" stroke-width="3" stroke-linecap="round" stroke-linejoin="round"/>
  <line x1="18" y1="42" x2="30" y2="42" stroke="#ffd21f" stroke-width="3" stroke-linecap="round"/>
  <line x1="20" y1="38" x2="20" y2="42" stroke="#ffd21f" stroke-width="2" stroke-linecap="round"/>
  <line x1="28" y1="38" x2="28" y2="42" stroke="#ffd21f" stroke-width="2" stroke-linecap="round"/>
  <!-- Sparkle rays -->
  <line x1="24" y1="1" x2="24" y2="4" stroke="#ffd21f" stroke-width="2.5" stroke-linecap="round"/>
  <line x1="6" y1="12" x2="9" y2="14" stroke="#ffd21f" stroke-width="2.5" stroke-linecap="round"/>
  <line x1="42" y1="12" x2="39" y2="14" stroke="#ffd21f" stroke-width="2.5" stroke-linecap="round"/>
  <line x1="4" y1="24" x2="7" y2="24" stroke="#ffd21f" stroke-width="2.5" stroke-linecap="round"/>
  <line x1="44" y1="24" x2="41" y2="24" stroke="#ffd21f" stroke-width="2.5" stroke-linecap="round"/>
</svg>
